<svg width="161" height="161" viewBox="0 0 161 161" fill="none" xmlns="http://www.w3.org/2000/svg">
<path d="M160.968 86.643C160.775 82.1841 156.413 78.6234 147.976 76.0572C141.432 74.1004 133.124 72.9135 124.142 72.7211V38.4937C124.11 37.9163 123.95 37.371 123.661 36.8898C122.763 33.0084 118.432 29.8647 110.766 27.5551C103.548 25.3738 94.1172 24.1869 84.205 24.1869C74.325 24.1869 64.9902 25.3738 57.901 27.5551C52.0948 29.3515 45.1339 32.6876 45.1339 38.4296C45.1339 38.7824 45.166 39.1353 45.2301 39.4881L45.583 54.1158C24.7322 50.1381 4.61925 63.8354 0.67364 84.6541C0.224547 87.0279 0 89.4017 0 91.8075C0 112.979 17.2259 130.205 38.3975 130.205C47.219 130.205 55.7517 127.19 62.5844 121.608C68.583 123.02 75.6402 123.789 83.1144 123.854C84.7503 132.739 103.997 136.813 121.929 136.813C131.809 136.813 141.144 135.594 148.233 133.381C154.039 131.584 161 128.216 161 122.474V87.2524C161 87.06 161 86.8354 160.968 86.643ZM117.438 56.2329C117.438 56.6499 115.898 58.8633 108.937 60.9805C102.425 62.9372 93.4114 64.092 84.2371 64.092C76.3138 64.092 68.5509 63.258 62.3919 61.6862C62.2957 61.6541 62.2315 61.6541 62.1353 61.622C59.0879 59.2162 55.7197 57.2915 52.0948 55.9442L51.8703 46.8982C54.0837 48.0209 56.3933 48.9191 58.7992 49.5607C65.7601 51.5816 74.7741 52.6722 84.2371 52.6722C94.1172 52.6722 103.58 51.4854 110.798 49.304C113.204 48.5983 115.545 47.6681 117.759 46.5132V54.9177C117.406 55.3668 117.438 55.7838 117.438 56.2329ZM59.8257 33.7462C66.3054 31.7573 74.9665 30.6346 84.205 30.6346C93.3794 30.6346 102.393 31.7573 108.905 33.7462C115.866 35.8633 117.406 38.0446 117.406 38.4616C117.406 38.9107 115.834 41.1241 108.873 43.2092C102.361 45.166 93.3794 46.2887 84.205 46.2887C75.3515 46.2887 66.947 45.2622 60.5635 43.4017C53.6667 41.4128 51.742 39.2315 51.5816 38.5258C51.5816 38.4616 51.5495 38.4616 51.5495 38.4616C51.5816 37.8522 53.0572 35.7992 59.8257 33.7462ZM59.9219 115.481C46.8661 127.35 26.6248 126.42 14.7559 113.364C2.88703 100.308 3.81729 80.0669 16.8731 68.198C22.7434 62.841 30.4421 59.8898 38.3975 59.8898C41.6053 59.8898 44.781 60.371 47.8605 61.3013C58.9916 64.7657 67.364 74.0042 69.7378 85.3919C70.1548 87.5091 70.3794 89.6904 70.3794 91.8396C70.4114 100.854 66.5941 109.418 59.9219 115.481ZM68.0697 116.187C70.6681 113.011 72.7531 109.45 74.2287 105.633C76.9554 105.858 79.7782 106.018 82.7294 106.05V106.628L82.9219 117.502C77.9498 117.438 72.9777 116.989 68.0697 116.187ZM76.6346 88.0223C78.4951 88.1506 80.4519 88.2148 82.4407 88.2469L82.6332 99.6025C80.3877 99.5704 78.1743 99.4742 76.0572 99.3138C76.5384 96.8438 76.795 94.3096 76.795 91.8075C76.795 90.5565 76.7308 89.3054 76.6346 88.0223ZM84.5258 81.8633C84.4296 81.8633 84.3013 81.8633 84.205 81.8633C81.1255 81.8633 78.1423 81.735 75.3835 81.5425C74.1646 77.2441 72.2399 73.2022 69.6416 69.6095C74.4533 70.219 79.2971 70.5397 84.1729 70.5397C94.0851 70.5397 103.548 69.3529 110.766 67.1715C113.172 66.4658 115.481 65.5356 117.695 64.4128V72.8173C103.933 73.2022 89.7866 76.0893 84.5258 81.8633ZM88.7601 86.9637C88.7601 86.9317 88.7601 86.8996 88.7922 86.8354C89.0809 85.9693 91.3584 83.8522 97.9986 81.9916C104.222 80.2273 112.338 79.265 120.87 79.265H121.416C130.59 79.265 139.572 80.3236 146.116 82.3124C152.948 84.3654 154.552 86.4826 154.584 86.9637V86.9958C154.552 87.477 152.948 89.6904 145.827 91.8075C139.251 93.7643 130.59 94.8229 121.448 94.8229C112.594 94.8229 104.19 93.7964 97.8061 91.9679C90.9093 89.9791 89.0167 87.7657 88.8243 87.0921C88.7601 86.9637 88.7601 86.9637 88.7601 86.9637ZM146.372 127.286C139.893 129.307 131.199 130.43 121.961 130.43C112.69 130.43 104.029 129.339 97.6137 127.382C90.8452 125.297 89.4337 123.148 89.4337 122.667C89.4337 122.635 89.4337 122.635 89.4337 122.603L89.2734 113.3C91.8396 114.551 94.5021 115.513 97.2608 116.219C103.997 117.983 112.562 118.978 121.351 118.978C131.264 118.978 140.662 117.791 147.848 115.609C150.19 114.904 152.435 113.973 154.584 112.883V122.506H154.616C154.616 122.955 153.141 125.169 146.372 127.286ZM154.649 103.676H154.616C154.616 103.997 154.424 104.382 154.424 104.735C154.424 105.184 152.916 107.365 145.987 109.483C139.411 111.471 130.654 112.562 121.384 112.562C103.612 112.562 91.6471 108.552 89.145 105.441L89.113 102.746L88.9847 95.3682C91.2301 96.4909 93.5718 97.3891 95.9777 98.0628C102.939 100.084 111.953 101.174 121.416 101.174C131.167 101.174 140.47 100.02 147.623 97.9024C150.061 97.2287 152.403 96.2985 154.649 95.1437V103.676Z" fill="#0E7F3B"/>
<path d="M50.0739 96.3626C48.5983 91.1339 43.8187 87.5412 38.3975 87.5412C35.2538 87.5412 32.6876 85.007 32.6876 81.8633C32.7197 78.6876 35.2538 76.1534 38.3975 76.1534C41.5411 76.1534 44.1074 78.7197 44.1074 81.8633C44.1074 83.6276 45.5509 85.0712 47.3152 85.0712C49.0795 85.0712 50.523 83.6276 50.523 81.8633C50.523 76.4421 46.9303 71.6625 41.7015 70.1869V68.7434C41.7015 66.9791 40.258 65.5356 38.4937 65.5356C36.7294 65.5356 35.2859 66.9791 35.2859 68.7434V70.1228C28.8382 71.855 24.9888 78.4951 26.7211 84.9428C28.1325 90.2357 32.9121 93.9247 38.3975 93.9247C41.5411 93.9247 44.1074 96.4589 44.1074 99.6025C44.1074 102.746 41.5732 105.312 38.4296 105.312C35.2859 105.312 32.7197 102.778 32.7197 99.6346C32.7197 97.8703 31.2762 96.4268 29.5119 96.4268C27.7476 96.4268 26.304 97.8703 26.304 99.6346C26.3361 105.12 29.993 109.9 35.2859 111.343V114.134C35.2859 115.898 36.7294 117.342 38.4937 117.342C40.258 117.342 41.7015 115.898 41.7015 114.134V111.311C48.1492 109.483 51.9024 102.81 50.0739 96.3626Z" fill="#0E7F3B"/>
</svg>
