<svg width="37" height="41" viewBox="0 0 37 41" fill="none" xmlns="http://www.w3.org/2000/svg">
<path d="M34.8828 23.3125C33.4063 21.9766 32.5625 20.0781 32.5625 18.0391V14.875C32.5625 7.70315 26.9375 1.51565 19.836 0.882833C12.6641 0.25002 5.98439 5.24221 4.71876 12.3438C4.50782 13.1172 4.43751 14.0313 4.43751 14.875V18.1094C4.43751 20.0781 3.59376 22.0469 2.1172 23.3828C0.429698 24.9297 -0.132802 27.3203 0.710948 29.5703C1.48439 31.75 3.52345 33.1563 5.84376 33.1563H10.2031C10.9063 37.0938 14.4219 40.1875 18.5 40.1875C22.5781 40.1875 26.0938 37.0938 26.7969 33.1563H31.1563C33.4766 33.1563 35.5156 31.75 36.3594 29.5C37.2031 27.3203 36.6406 24.8594 34.8828 23.3125ZM18.5 37.375C15.9688 37.375 13.7188 35.5469 13.0859 33.1563H23.9844C23.2813 35.5469 21.0313 37.375 18.5 37.375ZM33.7578 28.5156C33.4063 29.4297 32.5625 30.3438 31.1563 30.3438H5.84376C4.43751 30.3438 3.59376 29.4297 3.31251 28.5156C2.96095 27.6016 2.96095 26.336 4.01564 25.4219C6.12501 23.5235 7.25001 20.9219 7.25001 18.1094V14.875C7.25001 14.1719 7.32032 13.4688 7.46095 12.836C8.51564 7.21096 13.8594 3.13283 19.5547 3.69533C25.25 4.18752 29.75 9.1094 29.75 14.875V18.1094C29.75 20.9219 30.9453 23.5938 33.0547 25.4219C34.0391 26.336 34.0391 27.6016 33.7578 28.5156Z" fill="#0E7F3B"/>
</svg>
